<svg xmlns="http://www.w3.org/2000/svg" xmlns:xlink="http://www.w3.org/1999/xlink" width="434" zoomAndPan="magnify" viewBox="0 0 325.5 216.749994" height="289" preserveAspectRatio="xMidYMid meet" version="1.0"><defs><g/><clipPath id="0992cacf80"><path d="M 170 0.523438 L 237.363281 0.523438 L 237.363281 54.75 L 170 54.75 Z M 170 0.523438 " clip-rule="nonzero"/></clipPath><clipPath id="5b549e1a24"><path d="M 87.617188 16 L 182 16 L 182 135 L 87.617188 135 Z M 87.617188 16 " clip-rule="nonzero"/></clipPath><clipPath id="acda724951"><path d="M 205 118 L 237.363281 118 L 237.363281 150.292969 L 205 150.292969 Z M 205 118 " clip-rule="nonzero"/></clipPath></defs><path fill="#ffffff" d="M 199.464844 42.292969 L 199.878906 43.945312 C 200.324219 45.75 201.9375 47.003906 203.792969 47.003906 C 205.640625 47.003906 207.253906 45.75 207.707031 43.945312 L 208.121094 42.292969 C 206.710938 42.019531 205.265625 41.839844 203.792969 41.839844 C 202.320312 41.839844 200.878906 42.019531 199.464844 42.292969 " fill-opacity="1" fill-rule="nonzero"/><g clip-path="url(#0992cacf80)"><path fill="#ffffff" d="M 193.515625 38.609375 C 188.804688 35.34375 185.71875 29.914062 185.71875 23.761719 C 185.71875 13.796875 193.828125 5.6875 203.792969 5.6875 C 213.761719 5.6875 221.871094 13.796875 221.871094 23.761719 C 221.871094 29.914062 218.773438 35.34375 214.074219 38.609375 C 221.335938 41.425781 227.316406 47.144531 230.34375 54.578125 C 235.699219 47.667969 238.128906 39.136719 237.152344 30.257812 C 235.445312 14.855469 223.03125 2.4375 207.628906 0.734375 C 206.324219 0.59375 205.023438 0.523438 203.742188 0.523438 C 195.460938 0.523438 187.644531 3.488281 181.410156 9.074219 C 174.300781 15.441406 170.226562 24.558594 170.226562 34.089844 C 170.226562 41.625 172.816406 48.789062 177.246094 54.558594 C 180.269531 47.132812 186.253906 41.425781 193.515625 38.609375 " fill-opacity="1" fill-rule="nonzero"/></g><path fill="#ffffff" d="M 198.628906 96.066406 L 198.628906 101.230469 L 193.464844 101.230469 L 193.464844 96.066406 Z M 188.300781 101.230469 L 183.136719 101.230469 L 183.136719 96.066406 L 188.300781 96.066406 Z M 177.972656 101.230469 L 172.808594 101.230469 L 172.808594 96.066406 L 177.972656 96.066406 Z M 190.015625 84.011719 C 189.136719 83.125 188.582031 82.003906 188.390625 80.792969 C 187.503906 80.652344 186.617188 80.570312 185.71875 80.570312 C 175.753906 80.570312 167.644531 88.683594 167.644531 98.648438 C 167.644531 108.613281 175.753906 116.722656 185.71875 116.722656 C 195.683594 116.722656 203.792969 108.613281 203.792969 98.648438 C 203.792969 93.25 201.394531 88.207031 197.308594 84.796875 C 196.378906 85.382812 195.3125 85.734375 194.179688 85.734375 C 192.609375 85.734375 191.125 85.121094 190.015625 84.011719 " fill-opacity="1" fill-rule="nonzero"/><path fill="#ffffff" d="M 216.707031 23.761719 C 216.707031 16.640625 210.914062 10.851562 203.792969 10.851562 C 196.671875 10.851562 190.882812 16.640625 190.882812 23.761719 C 190.882812 30.882812 196.671875 36.671875 203.792969 36.671875 C 210.914062 36.671875 216.707031 30.882812 216.707031 23.761719 " fill-opacity="1" fill-rule="nonzero"/><path fill="#ffffff" d="M 203.179688 76.296875 L 200.503906 80.742188 C 205.820312 85.140625 208.957031 91.65625 208.957031 98.648438 C 208.957031 111.46875 198.527344 121.886719 185.71875 121.886719 C 172.898438 121.886719 162.476562 111.46875 162.476562 98.648438 C 162.476562 85.828125 172.898438 75.40625 185.71875 75.40625 C 186.585938 75.40625 187.441406 75.476562 188.300781 75.570312 L 188.3125 70.363281 C 187.441406 70.292969 186.585938 70.242188 185.71875 70.242188 C 170.054688 70.242188 157.3125 82.984375 157.3125 98.648438 C 157.3125 114.3125 170.054688 127.050781 185.71875 127.050781 C 201.382812 127.050781 214.121094 114.3125 214.121094 98.648438 C 214.121094 89.820312 210.058594 81.660156 203.179688 76.296875 " fill-opacity="1" fill-rule="nonzero"/><path fill="#ffffff" d="M 203.792969 67.660156 C 212.207031 67.660156 220.296875 64.472656 226.460938 58.84375 L 225.792969 57.089844 C 223.523438 51.007812 218.8125 46.316406 213.054688 43.824219 L 212.710938 45.195312 C 211.691406 49.300781 208.019531 52.167969 203.792969 52.167969 C 199.558594 52.167969 195.894531 49.300781 194.867188 45.195312 L 194.523438 43.824219 C 188.773438 46.316406 184.0625 51.007812 181.785156 57.089844 L 181.128906 58.824219 C 184.195312 61.648438 187.796875 63.929688 191.8125 65.460938 L 193.476562 66.097656 L 193.464844 79.855469 C 193.464844 80.109375 193.574219 80.269531 193.675781 80.359375 C 193.859375 80.550781 194.535156 80.640625 194.796875 80.230469 L 202.332031 67.660156 L 203.792969 67.660156 " fill-opacity="1" fill-rule="nonzero"/><g clip-path="url(#5b549e1a24)"><path fill="#ffffff" d="M 152.460938 105.132812 C 147.125 114.140625 139.480469 119.304688 131.492188 119.304688 L 131.492188 114.140625 C 137.703125 114.140625 143.574219 110.003906 148.023438 102.492188 Z M 131.492188 129.632812 C 122.855469 129.632812 114.707031 125.78125 107.90625 118.476562 L 111.679688 114.96875 C 117.480469 121.179688 124.328125 124.46875 131.492188 124.46875 C 137.242188 124.46875 142.917969 122.292969 147.914062 118.15625 L 151.210938 122.128906 C 145.28125 127.042969 138.460938 129.632812 131.492188 129.632812 Z M 142.425781 90.183594 C 143.515625 86.402344 144.171875 82.265625 144.351562 77.878906 L 149.507812 78.089844 C 149.316406 82.890625 148.597656 87.441406 147.386719 91.617188 Z M 134.074219 62.496094 L 134.074219 88.320312 L 128.910156 88.320312 L 128.910156 62.496094 Z M 131.492188 47.003906 C 125.378906 47.003906 118.582031 58.671875 118.582031 75.40625 C 118.582031 92.140625 125.378906 103.8125 131.492188 103.8125 C 134.296875 103.8125 137.140625 101.523438 139.488281 97.375 L 143.988281 99.917969 C 140.671875 105.757812 136.242188 108.976562 131.492188 108.976562 C 121.355469 108.976562 113.414062 94.230469 113.414062 75.40625 C 113.414062 56.585938 121.355469 41.839844 131.492188 41.839844 C 140.035156 41.839844 147.09375 52.085938 149.050781 67.328125 L 143.929688 67.992188 C 142.394531 56.019531 137.050781 47.003906 131.492188 47.003906 Z M 103.085938 75.40625 C 103.085938 51.199219 115.828125 31.507812 131.492188 31.507812 C 145.855469 31.507812 157.980469 48.070312 159.683594 70.042969 L 154.539062 70.445312 C 153.035156 51.1875 143.132812 36.671875 131.492188 36.671875 C 118.671875 36.671875 108.25 54.054688 108.25 75.40625 C 108.25 91.707031 114.496094 106.382812 123.804688 111.921875 L 121.164062 116.359375 C 110.175781 109.824219 103.085938 93.746094 103.085938 75.40625 Z M 100.28125 107.59375 C 95.359375 98.234375 92.757812 87.109375 92.757812 75.40625 C 92.757812 70.878906 93.152344 66.390625 93.9375 62.042969 L 99.023438 62.949219 C 98.285156 66.996094 97.921875 71.191406 97.921875 75.40625 C 97.921875 86.269531 100.3125 96.570312 104.851562 105.195312 Z M 131.492188 21.179688 L 131.492188 26.34375 C 117.8125 26.34375 105.609375 38.339844 100.402344 56.898438 L 95.429688 55.507812 C 101.28125 34.65625 115.433594 21.179688 131.492188 21.179688 Z M 164.96875 72.3125 C 164.101562 52.308594 154.863281 34.867188 141.710938 28.683594 L 143.910156 24.003906 C 158.058594 30.671875 168.207031 48.433594 169.953125 69.03125 C 173.351562 67.21875 177.105469 65.996094 181.066406 65.441406 C 172.109375 58.90625 166.21875 48.675781 165.222656 37.46875 C 156.828125 23.832031 144.5625 16.015625 131.492188 16.015625 C 108.847656 16.015625 89.628906 39.902344 87.746094 70.402344 L 87.753906 80.570312 C 89.628906 110.914062 108.847656 134.800781 131.492188 134.800781 C 142.050781 134.800781 152.128906 129.632812 160.117188 120.3125 C 155.15625 114.453125 152.148438 106.898438 152.148438 98.648438 C 152.148438 87.964844 157.171875 78.464844 164.96875 72.3125 " fill-opacity="1" fill-rule="nonzero"/></g><g clip-path="url(#acda724951)"><path fill="#ffffff" d="M 235.980469 142.234375 L 212.519531 118.769531 C 210.613281 121.300781 208.375 123.550781 205.839844 125.449219 L 229.304688 148.910156 C 230.179688 149.789062 231.402344 150.292969 232.640625 150.292969 C 235.246094 150.292969 237.363281 148.175781 237.363281 145.570312 C 237.363281 144.332031 236.859375 143.109375 235.980469 142.234375 " fill-opacity="1" fill-rule="nonzero"/></g><g fill="#ffffff" fill-opacity="1"><g transform="translate(26.440174, 173.706342)"><g><path d="M 15.015625 -23.0625 L 15.015625 -18.453125 L 6.9375 -18.453125 L 6.9375 -13.859375 L 14.390625 -13.859375 L 14.390625 -9.25 L 6.9375 -9.25 L 6.9375 0 L 1.671875 0 L 1.671875 -23.0625 Z M 15.015625 -23.0625 "/></g></g></g><g fill="#ffffff" fill-opacity="1"><g transform="translate(42.289663, 173.706342)"><g><path d="M 2.65625 -1.765625 C 1.3125 -3.234375 0.640625 -5.03125 0.640625 -7.15625 C 0.640625 -9.28125 1.3125 -11.078125 2.65625 -12.546875 C 4 -14.023438 5.703125 -14.765625 7.765625 -14.765625 C 9.671875 -14.765625 11.238281 -14.164062 12.46875 -12.96875 L 12.46875 -14.34375 L 17.421875 -14.34375 L 17.421875 0 L 12.515625 0 L 12.515625 -1.625 L 12.46875 -1.625 C 11.238281 -0.257812 9.671875 0.421875 7.765625 0.421875 C 5.703125 0.421875 4 -0.304688 2.65625 -1.765625 Z M 6.859375 -9.578125 C 6.210938 -8.953125 5.890625 -8.144531 5.890625 -7.15625 C 5.890625 -6.164062 6.195312 -5.359375 6.8125 -4.734375 C 7.4375 -4.109375 8.25 -3.796875 9.25 -3.796875 C 10.21875 -3.796875 11.015625 -4.113281 11.640625 -4.75 C 12.265625 -5.382812 12.578125 -6.1875 12.578125 -7.15625 C 12.578125 -8.144531 12.253906 -8.953125 11.609375 -9.578125 C 10.972656 -10.210938 10.1875 -10.53125 9.25 -10.53125 C 8.300781 -10.53125 7.503906 -10.210938 6.859375 -9.578125 Z M 6.859375 -9.578125 "/></g></g></g><g fill="#ffffff" fill-opacity="1"><g transform="translate(61.38173, 173.706342)"><g><path d="M 9.3125 -10.703125 C 8.375 -10.703125 7.566406 -10.359375 6.890625 -9.671875 C 6.222656 -8.984375 5.890625 -8.15625 5.890625 -7.1875 C 5.890625 -6.195312 6.222656 -5.359375 6.890625 -4.671875 C 7.566406 -3.984375 8.375 -3.640625 9.3125 -3.640625 C 9.757812 -3.640625 10.179688 -3.691406 10.578125 -3.796875 C 10.984375 -3.910156 11.273438 -4.023438 11.453125 -4.140625 L 11.71875 -4.3125 L 13.390625 -0.859375 C 13.253906 -0.773438 13.070312 -0.660156 12.84375 -0.515625 C 12.613281 -0.378906 12.082031 -0.191406 11.25 0.046875 C 10.414062 0.296875 9.523438 0.421875 8.578125 0.421875 C 6.472656 0.421875 4.625 -0.316406 3.03125 -1.796875 C 1.4375 -3.285156 0.640625 -5.0625 0.640625 -7.125 C 0.640625 -9.21875 1.4375 -11.015625 3.03125 -12.515625 C 4.625 -14.015625 6.472656 -14.765625 8.578125 -14.765625 C 9.523438 -14.765625 10.398438 -14.648438 11.203125 -14.421875 C 12.003906 -14.203125 12.578125 -13.976562 12.921875 -13.75 L 13.390625 -13.421875 L 11.71875 -10.03125 C 11.101562 -10.476562 10.300781 -10.703125 9.3125 -10.703125 Z M 9.3125 -10.703125 "/></g></g></g><g fill="#ffffff" fill-opacity="1"><g transform="translate(75.106774, 173.706342)"><g><path d="M 16.1875 -6.484375 L 5.78125 -6.484375 C 5.78125 -5.472656 6.109375 -4.722656 6.765625 -4.234375 C 7.421875 -3.753906 8.128906 -3.515625 8.890625 -3.515625 C 9.691406 -3.515625 10.320312 -3.625 10.78125 -3.84375 C 11.25 -4.0625 11.785156 -4.484375 12.390625 -5.109375 L 15.96875 -3.328125 C 14.46875 -0.828125 11.988281 0.421875 8.53125 0.421875 C 6.363281 0.421875 4.503906 -0.316406 2.953125 -1.796875 C 1.410156 -3.285156 0.640625 -5.070312 0.640625 -7.15625 C 0.640625 -9.238281 1.410156 -11.023438 2.953125 -12.515625 C 4.503906 -14.015625 6.363281 -14.765625 8.53125 -14.765625 C 10.800781 -14.765625 12.648438 -14.101562 14.078125 -12.78125 C 15.503906 -11.46875 16.21875 -9.59375 16.21875 -7.15625 C 16.21875 -6.820312 16.207031 -6.597656 16.1875 -6.484375 Z M 5.921875 -9.21875 L 11.375 -9.21875 C 11.257812 -9.96875 10.960938 -10.539062 10.484375 -10.9375 C 10.015625 -11.34375 9.410156 -11.546875 8.671875 -11.546875 C 7.847656 -11.546875 7.191406 -11.332031 6.703125 -10.90625 C 6.222656 -10.476562 5.960938 -9.914062 5.921875 -9.21875 Z M 5.921875 -9.21875 "/></g></g></g><g fill="#ffffff" fill-opacity="1"><g transform="translate(91.962576, 173.706342)"><g/></g></g><g fill="#ffffff" fill-opacity="1"><g transform="translate(99.593813, 173.706342)"><g><path d="M 10.171875 -23.484375 C 11.421875 -23.484375 12.640625 -23.300781 13.828125 -22.9375 C 15.023438 -22.570312 15.914062 -22.210938 16.5 -21.859375 L 17.328125 -21.296875 L 15.203125 -17.109375 C 15.035156 -17.222656 14.800781 -17.367188 14.5 -17.546875 C 14.207031 -17.722656 13.648438 -17.957031 12.828125 -18.25 C 12.003906 -18.550781 11.238281 -18.703125 10.53125 -18.703125 C 9.65625 -18.703125 8.976562 -18.515625 8.5 -18.140625 C 8.03125 -17.765625 7.796875 -17.257812 7.796875 -16.625 C 7.796875 -16.3125 7.90625 -16.019531 8.125 -15.75 C 8.351562 -15.476562 8.738281 -15.1875 9.28125 -14.875 C 9.820312 -14.570312 10.296875 -14.328125 10.703125 -14.140625 C 11.117188 -13.953125 11.753906 -13.675781 12.609375 -13.3125 C 14.097656 -12.675781 15.367188 -11.8125 16.421875 -10.71875 C 17.472656 -9.625 18 -8.390625 18 -7.015625 C 18 -5.691406 17.757812 -4.535156 17.28125 -3.546875 C 16.8125 -2.554688 16.160156 -1.78125 15.328125 -1.21875 C 14.503906 -0.664062 13.585938 -0.253906 12.578125 0.015625 C 11.566406 0.285156 10.476562 0.421875 9.3125 0.421875 C 8.300781 0.421875 7.3125 0.316406 6.34375 0.109375 C 5.375 -0.0976562 4.5625 -0.351562 3.90625 -0.65625 C 3.257812 -0.96875 2.675781 -1.269531 2.15625 -1.5625 C 1.632812 -1.863281 1.25 -2.113281 1 -2.3125 L 0.640625 -2.625 L 3.265625 -7.046875 C 3.492188 -6.859375 3.800781 -6.617188 4.1875 -6.328125 C 4.582031 -6.035156 5.273438 -5.644531 6.265625 -5.15625 C 7.265625 -4.675781 8.148438 -4.4375 8.921875 -4.4375 C 11.140625 -4.4375 12.25 -5.191406 12.25 -6.703125 C 12.25 -7.023438 12.164062 -7.320312 12 -7.59375 C 11.84375 -7.863281 11.5625 -8.132812 11.15625 -8.40625 C 10.757812 -8.675781 10.40625 -8.890625 10.09375 -9.046875 C 9.789062 -9.203125 9.289062 -9.441406 8.59375 -9.765625 C 7.894531 -10.097656 7.378906 -10.347656 7.046875 -10.515625 C 5.648438 -11.203125 4.566406 -12.0625 3.796875 -13.09375 C 3.035156 -14.125 2.65625 -15.238281 2.65625 -16.4375 C 2.65625 -18.507812 3.414062 -20.203125 4.9375 -21.515625 C 6.46875 -22.828125 8.210938 -23.484375 10.171875 -23.484375 Z M 10.171875 -23.484375 "/></g></g></g><g fill="#ffffff" fill-opacity="1"><g transform="translate(118.378392, 173.706342)"><g><path d="M 18.0625 -14.34375 L 11.234375 -7.484375 L 18.734375 0 L 12.359375 0 L 6.625 -5.734375 L 6.625 0 L 1.671875 0 L 1.671875 -24.046875 L 6.625 -24.046875 L 6.625 -9.34375 L 11.625 -14.34375 Z M 18.0625 -14.34375 "/></g></g></g><g fill="#ffffff" fill-opacity="1"><g transform="translate(136.436185, 173.706342)"><g><path d="M 16.1875 -6.484375 L 5.78125 -6.484375 C 5.78125 -5.472656 6.109375 -4.722656 6.765625 -4.234375 C 7.421875 -3.753906 8.128906 -3.515625 8.890625 -3.515625 C 9.691406 -3.515625 10.320312 -3.625 10.78125 -3.84375 C 11.25 -4.0625 11.785156 -4.484375 12.390625 -5.109375 L 15.96875 -3.328125 C 14.46875 -0.828125 11.988281 0.421875 8.53125 0.421875 C 6.363281 0.421875 4.503906 -0.316406 2.953125 -1.796875 C 1.410156 -3.285156 0.640625 -5.070312 0.640625 -7.15625 C 0.640625 -9.238281 1.410156 -11.023438 2.953125 -12.515625 C 4.503906 -14.015625 6.363281 -14.765625 8.53125 -14.765625 C 10.800781 -14.765625 12.648438 -14.101562 14.078125 -12.78125 C 15.503906 -11.46875 16.21875 -9.59375 16.21875 -7.15625 C 16.21875 -6.820312 16.207031 -6.597656 16.1875 -6.484375 Z M 5.921875 -9.21875 L 11.375 -9.21875 C 11.257812 -9.96875 10.960938 -10.539062 10.484375 -10.9375 C 10.015625 -11.34375 9.410156 -11.546875 8.671875 -11.546875 C 7.847656 -11.546875 7.191406 -11.332031 6.703125 -10.90625 C 6.222656 -10.476562 5.960938 -9.914062 5.921875 -9.21875 Z M 5.921875 -9.21875 "/></g></g></g><g fill="#ffffff" fill-opacity="1"><g transform="translate(153.291987, 173.706342)"><g><path d="M 2.515625 -14.34375 L 2.515625 -19.671875 L 7.46875 -19.671875 L 7.46875 -14.34375 L 10.484375 -14.34375 L 10.484375 -10.5625 L 7.46875 -10.5625 L 7.46875 -6.015625 C 7.46875 -4.691406 7.835938 -4.03125 8.578125 -4.03125 C 8.765625 -4.03125 8.957031 -4.066406 9.15625 -4.140625 C 9.363281 -4.210938 9.523438 -4.285156 9.640625 -4.359375 L 9.8125 -4.46875 L 11.046875 -0.46875 C 9.984375 0.125 8.769531 0.421875 7.40625 0.421875 C 6.476562 0.421875 5.675781 0.257812 5 -0.0625 C 4.332031 -0.394531 3.828125 -0.832031 3.484375 -1.375 C 3.140625 -1.925781 2.890625 -2.503906 2.734375 -3.109375 C 2.585938 -3.722656 2.515625 -4.375 2.515625 -5.0625 L 2.515625 -10.5625 L 0.453125 -10.5625 L 0.453125 -14.34375 Z M 2.515625 -14.34375 "/></g></g></g><g fill="#ffffff" fill-opacity="1"><g transform="translate(164.33352, 173.706342)"><g><path d="M 9.3125 -10.703125 C 8.375 -10.703125 7.566406 -10.359375 6.890625 -9.671875 C 6.222656 -8.984375 5.890625 -8.15625 5.890625 -7.1875 C 5.890625 -6.195312 6.222656 -5.359375 6.890625 -4.671875 C 7.566406 -3.984375 8.375 -3.640625 9.3125 -3.640625 C 9.757812 -3.640625 10.179688 -3.691406 10.578125 -3.796875 C 10.984375 -3.910156 11.273438 -4.023438 11.453125 -4.140625 L 11.71875 -4.3125 L 13.390625 -0.859375 C 13.253906 -0.773438 13.070312 -0.660156 12.84375 -0.515625 C 12.613281 -0.378906 12.082031 -0.191406 11.25 0.046875 C 10.414062 0.296875 9.523438 0.421875 8.578125 0.421875 C 6.472656 0.421875 4.625 -0.316406 3.03125 -1.796875 C 1.4375 -3.285156 0.640625 -5.0625 0.640625 -7.125 C 0.640625 -9.21875 1.4375 -11.015625 3.03125 -12.515625 C 4.625 -14.015625 6.472656 -14.765625 8.578125 -14.765625 C 9.523438 -14.765625 10.398438 -14.648438 11.203125 -14.421875 C 12.003906 -14.203125 12.578125 -13.976562 12.921875 -13.75 L 13.390625 -13.421875 L 11.71875 -10.03125 C 11.101562 -10.476562 10.300781 -10.703125 9.3125 -10.703125 Z M 9.3125 -10.703125 "/></g></g></g><g fill="#ffffff" fill-opacity="1"><g transform="translate(178.058565, 173.706342)"><g><path d="M 1.671875 0 L 1.671875 -24.046875 L 6.625 -24.046875 L 6.625 -12.828125 L 6.6875 -12.828125 C 7.96875 -14.117188 9.335938 -14.765625 10.796875 -14.765625 C 11.503906 -14.765625 12.207031 -14.671875 12.90625 -14.484375 C 13.601562 -14.296875 14.269531 -14.003906 14.90625 -13.609375 C 15.550781 -13.222656 16.070312 -12.671875 16.46875 -11.953125 C 16.875 -11.234375 17.078125 -10.398438 17.078125 -9.453125 L 17.078125 0 L 12.125 0 L 12.125 -8.109375 C 12.125 -8.847656 11.882812 -9.5 11.40625 -10.0625 C 10.9375 -10.625 10.320312 -10.90625 9.5625 -10.90625 C 8.8125 -10.90625 8.132812 -10.613281 7.53125 -10.03125 C 6.925781 -9.457031 6.625 -8.816406 6.625 -8.109375 L 6.625 0 Z M 1.671875 0 "/></g></g></g><g fill="#ffffff" fill-opacity="1"><g transform="translate(196.535655, 173.706342)"><g/></g></g><g fill="#ffffff" fill-opacity="1"><g transform="translate(204.166892, 173.706342)"><g><path d="M 20.734375 0 L 19.65625 -13.671875 L 19.515625 -13.671875 L 14.78125 -0.140625 L 11.65625 -0.140625 L 6.9375 -13.671875 L 6.796875 -13.671875 L 5.703125 0 L 0.453125 0 L 2.515625 -23.0625 L 8.109375 -23.0625 L 13.21875 -9.75 L 18.34375 -23.0625 L 23.921875 -23.0625 L 26 0 Z M 20.734375 0 "/></g></g></g><g fill="#ffffff" fill-opacity="1"><g transform="translate(230.610669, 173.706342)"><g><path d="M 2.65625 -1.765625 C 1.3125 -3.234375 0.640625 -5.03125 0.640625 -7.15625 C 0.640625 -9.28125 1.3125 -11.078125 2.65625 -12.546875 C 4 -14.023438 5.703125 -14.765625 7.765625 -14.765625 C 9.671875 -14.765625 11.238281 -14.164062 12.46875 -12.96875 L 12.46875 -14.34375 L 17.421875 -14.34375 L 17.421875 0 L 12.515625 0 L 12.515625 -1.625 L 12.46875 -1.625 C 11.238281 -0.257812 9.671875 0.421875 7.765625 0.421875 C 5.703125 0.421875 4 -0.304688 2.65625 -1.765625 Z M 6.859375 -9.578125 C 6.210938 -8.953125 5.890625 -8.144531 5.890625 -7.15625 C 5.890625 -6.164062 6.195312 -5.359375 6.8125 -4.734375 C 7.4375 -4.109375 8.25 -3.796875 9.25 -3.796875 C 10.21875 -3.796875 11.015625 -4.113281 11.640625 -4.75 C 12.265625 -5.382812 12.578125 -6.1875 12.578125 -7.15625 C 12.578125 -8.144531 12.253906 -8.953125 11.609375 -9.578125 C 10.972656 -10.210938 10.1875 -10.53125 9.25 -10.53125 C 8.300781 -10.53125 7.503906 -10.210938 6.859375 -9.578125 Z M 6.859375 -9.578125 "/></g></g></g><g fill="#ffffff" fill-opacity="1"><g transform="translate(249.702724, 173.706342)"><g><path d="M 18.0625 -14.34375 L 11.234375 -7.484375 L 18.734375 0 L 12.359375 0 L 6.625 -5.734375 L 6.625 0 L 1.671875 0 L 1.671875 -24.046875 L 6.625 -24.046875 L 6.625 -9.34375 L 11.625 -14.34375 Z M 18.0625 -14.34375 "/></g></g></g><g fill="#ffffff" fill-opacity="1"><g transform="translate(267.760518, 173.706342)"><g><path d="M 16.1875 -6.484375 L 5.78125 -6.484375 C 5.78125 -5.472656 6.109375 -4.722656 6.765625 -4.234375 C 7.421875 -3.753906 8.128906 -3.515625 8.890625 -3.515625 C 9.691406 -3.515625 10.320312 -3.625 10.78125 -3.84375 C 11.25 -4.0625 11.785156 -4.484375 12.390625 -5.109375 L 15.96875 -3.328125 C 14.46875 -0.828125 11.988281 0.421875 8.53125 0.421875 C 6.363281 0.421875 4.503906 -0.316406 2.953125 -1.796875 C 1.410156 -3.285156 0.640625 -5.070312 0.640625 -7.15625 C 0.640625 -9.238281 1.410156 -11.023438 2.953125 -12.515625 C 4.503906 -14.015625 6.363281 -14.765625 8.53125 -14.765625 C 10.800781 -14.765625 12.648438 -14.101562 14.078125 -12.78125 C 15.503906 -11.46875 16.21875 -9.59375 16.21875 -7.15625 C 16.21875 -6.820312 16.207031 -6.597656 16.1875 -6.484375 Z M 5.921875 -9.21875 L 11.375 -9.21875 C 11.257812 -9.96875 10.960938 -10.539062 10.484375 -10.9375 C 10.015625 -11.34375 9.410156 -11.546875 8.671875 -11.546875 C 7.847656 -11.546875 7.191406 -11.332031 6.703125 -10.90625 C 6.222656 -10.476562 5.960938 -9.914062 5.921875 -9.21875 Z M 5.921875 -9.21875 "/></g></g></g><g fill="#ffffff" fill-opacity="1"><g transform="translate(284.616332, 173.706342)"><g><path d="M 1.671875 0 L 1.671875 -14.34375 L 6.625 -14.34375 L 6.625 -12.265625 L 6.6875 -12.265625 C 6.71875 -12.347656 6.773438 -12.441406 6.859375 -12.546875 C 6.941406 -12.660156 7.125 -12.859375 7.40625 -13.140625 C 7.6875 -13.421875 7.984375 -13.671875 8.296875 -13.890625 C 8.617188 -14.117188 9.03125 -14.320312 9.53125 -14.5 C 10.03125 -14.675781 10.539062 -14.765625 11.0625 -14.765625 C 11.601562 -14.765625 12.132812 -14.6875 12.65625 -14.53125 C 13.1875 -14.382812 13.570312 -14.238281 13.8125 -14.09375 L 14.203125 -13.859375 L 12.125 -9.671875 C 11.507812 -10.191406 10.65625 -10.453125 9.5625 -10.453125 C 8.96875 -10.453125 8.453125 -10.320312 8.015625 -10.0625 C 7.585938 -9.800781 7.285156 -9.484375 7.109375 -9.109375 C 6.929688 -8.734375 6.804688 -8.414062 6.734375 -8.15625 C 6.660156 -7.894531 6.625 -7.691406 6.625 -7.546875 L 6.625 0 Z M 1.671875 0 "/></g></g></g><g fill="#ffffff" fill-opacity="1"><g transform="translate(138.545148, 192.277814)"><g/></g></g><g fill="#ffffff" fill-opacity="1"><g transform="translate(145.577314, 192.277814)"><g><path d="M 5.265625 -9.0625 L 8.921875 0 L 6.703125 0 L 6.03125 -1.8125 L 2.578125 -1.8125 L 1.90625 0 L -0.3125 0 L 3.34375 -9.0625 Z M 5.328125 -3.625 L 4.3125 -6.265625 L 4.296875 -6.265625 L 3.28125 -3.625 Z M 5.328125 -3.625 "/></g></g></g><g fill="#ffffff" fill-opacity="1"><g transform="translate(158.212845, 192.277814)"><g><path d="M 2.71875 -5.625 L 2.71875 0 L 0.65625 0 L 0.65625 -9.0625 L 2.71875 -9.0625 L 6.328125 -3.4375 L 6.34375 -3.4375 L 6.34375 -9.0625 L 8.421875 -9.0625 L 8.421875 0 L 6.34375 0 L 2.75 -5.625 Z M 2.71875 -5.625 "/></g></g></g><g fill="#ffffff" fill-opacity="1"><g transform="translate(171.309346, 192.277814)"><g><path d="M 0.65625 -9.0625 L 3.28125 -9.0625 C 4.539062 -9.0625 5.617188 -8.628906 6.515625 -7.765625 C 7.410156 -6.910156 7.859375 -5.832031 7.859375 -4.53125 C 7.859375 -3.226562 7.410156 -2.144531 6.515625 -1.28125 C 5.628906 -0.425781 4.550781 0 3.28125 0 L 0.65625 0 Z M 2.71875 -1.84375 L 3.046875 -1.84375 C 3.796875 -1.84375 4.410156 -2.097656 4.890625 -2.609375 C 5.367188 -3.117188 5.613281 -3.757812 5.625 -4.53125 C 5.625 -5.289062 5.382812 -5.925781 4.90625 -6.4375 C 4.425781 -6.957031 3.804688 -7.21875 3.046875 -7.21875 L 2.71875 -7.21875 Z M 2.71875 -1.84375 "/></g></g></g><g fill="#ffffff" fill-opacity="1"><g transform="translate(183.441029, 192.277814)"><g/></g></g><g fill="#ffffff" fill-opacity="1"><g transform="translate(65.813124, 207.254807)"><g><path d="M 5.484375 -1.875 C 5.796875 -1.875 6.097656 -1.921875 6.390625 -2.015625 C 6.691406 -2.109375 6.910156 -2.195312 7.046875 -2.28125 L 7.265625 -2.421875 L 8.140625 -0.671875 C 8.109375 -0.648438 8.066406 -0.617188 8.015625 -0.578125 C 7.960938 -0.546875 7.84375 -0.476562 7.65625 -0.375 C 7.46875 -0.28125 7.269531 -0.195312 7.0625 -0.125 C 6.851562 -0.0507812 6.578125 0.015625 6.234375 0.078125 C 5.890625 0.140625 5.53125 0.171875 5.15625 0.171875 C 4.320312 0.171875 3.523438 -0.0351562 2.765625 -0.453125 C 2.015625 -0.867188 1.40625 -1.4375 0.9375 -2.15625 C 0.476562 -2.882812 0.25 -3.671875 0.25 -4.515625 C 0.25 -5.148438 0.382812 -5.757812 0.65625 -6.34375 C 0.925781 -6.9375 1.285156 -7.441406 1.734375 -7.859375 C 2.191406 -8.273438 2.71875 -8.609375 3.3125 -8.859375 C 3.914062 -9.109375 4.53125 -9.234375 5.15625 -9.234375 C 5.75 -9.234375 6.289062 -9.160156 6.78125 -9.015625 C 7.28125 -8.878906 7.628906 -8.738281 7.828125 -8.59375 L 8.140625 -8.390625 L 7.265625 -6.640625 C 7.210938 -6.679688 7.132812 -6.734375 7.03125 -6.796875 C 6.925781 -6.859375 6.71875 -6.9375 6.40625 -7.03125 C 6.101562 -7.132812 5.796875 -7.1875 5.484375 -7.1875 C 4.984375 -7.1875 4.535156 -7.109375 4.140625 -6.953125 C 3.742188 -6.796875 3.429688 -6.582031 3.203125 -6.3125 C 2.972656 -6.050781 2.796875 -5.769531 2.671875 -5.46875 C 2.554688 -5.164062 2.5 -4.851562 2.5 -4.53125 C 2.5 -3.84375 2.753906 -3.226562 3.265625 -2.6875 C 3.785156 -2.144531 4.523438 -1.875 5.484375 -1.875 Z M 5.484375 -1.875 "/></g></g></g><g fill="#ffffff" fill-opacity="1"><g transform="translate(78.108419, 207.254807)"><g><path d="M 0.65625 -9.0625 L 3.90625 -9.0625 C 4.769531 -9.0625 5.476562 -8.828125 6.03125 -8.359375 C 6.582031 -7.898438 6.859375 -7.238281 6.859375 -6.375 C 6.859375 -5.707031 6.691406 -5.144531 6.359375 -4.6875 C 6.023438 -4.238281 5.570312 -3.925781 5 -3.75 L 8.125 0 L 5.5 0 L 2.71875 -3.578125 L 2.71875 0 L 0.65625 0 Z M 2.71875 -5.046875 L 2.96875 -5.046875 C 3.15625 -5.046875 3.3125 -5.046875 3.4375 -5.046875 C 3.570312 -5.054688 3.722656 -5.082031 3.890625 -5.125 C 4.066406 -5.175781 4.203125 -5.238281 4.296875 -5.3125 C 4.398438 -5.394531 4.488281 -5.515625 4.5625 -5.671875 C 4.632812 -5.828125 4.671875 -6.015625 4.671875 -6.234375 C 4.671875 -6.453125 4.632812 -6.632812 4.5625 -6.78125 C 4.488281 -6.9375 4.398438 -7.054688 4.296875 -7.140625 C 4.203125 -7.222656 4.066406 -7.285156 3.890625 -7.328125 C 3.722656 -7.367188 3.570312 -7.394531 3.4375 -7.40625 C 3.3125 -7.414062 3.15625 -7.421875 2.96875 -7.421875 L 2.71875 -7.421875 Z M 2.71875 -5.046875 "/></g></g></g><g fill="#ffffff" fill-opacity="1"><g transform="translate(89.997626, 207.254807)"><g><path d="M 2.71875 -9.0625 L 2.71875 0 L 0.65625 0 L 0.65625 -9.0625 Z M 2.71875 -9.0625 "/></g></g></g><g fill="#ffffff" fill-opacity="1"><g transform="translate(97.408887, 207.254807)"><g><path d="M 8.15625 0 L 7.71875 -5.375 L 7.671875 -5.375 L 5.8125 -0.0625 L 4.578125 -0.0625 L 2.71875 -5.375 L 2.671875 -5.375 L 2.234375 0 L 0.171875 0 L 0.984375 -9.0625 L 3.1875 -9.0625 L 5.203125 -3.828125 L 7.203125 -9.0625 L 9.40625 -9.0625 L 10.21875 0 Z M 8.15625 0 "/></g></g></g><g fill="#ffffff" fill-opacity="1"><g transform="translate(111.822432, 207.254807)"><g><path d="M 2.71875 -9.0625 L 2.71875 0 L 0.65625 0 L 0.65625 -9.0625 Z M 2.71875 -9.0625 "/></g></g></g><g fill="#ffffff" fill-opacity="1"><g transform="translate(119.233691, 207.254807)"><g><path d="M 2.71875 -5.625 L 2.71875 0 L 0.65625 0 L 0.65625 -9.0625 L 2.71875 -9.0625 L 6.328125 -3.4375 L 6.34375 -3.4375 L 6.34375 -9.0625 L 8.421875 -9.0625 L 8.421875 0 L 6.34375 0 L 2.75 -5.625 Z M 2.71875 -5.625 "/></g></g></g><g fill="#ffffff" fill-opacity="1"><g transform="translate(132.33019, 207.254807)"><g><path d="M 5.265625 -9.0625 L 8.921875 0 L 6.703125 0 L 6.03125 -1.8125 L 2.578125 -1.8125 L 1.90625 0 L -0.3125 0 L 3.34375 -9.0625 Z M 5.328125 -3.625 L 4.3125 -6.265625 L 4.296875 -6.265625 L 3.28125 -3.625 Z M 5.328125 -3.625 "/></g></g></g><g fill="#ffffff" fill-opacity="1"><g transform="translate(144.96572, 207.254807)"><g><path d="M 2.71875 -9.0625 L 2.71875 -1.8125 L 5.84375 -1.8125 L 5.84375 0 L 0.65625 0 L 0.65625 -9.0625 Z M 2.71875 -9.0625 "/></g></g></g><g fill="#ffffff" fill-opacity="1"><g transform="translate(155.197643, 207.254807)"><g/></g></g><g fill="#ffffff" fill-opacity="1"><g transform="translate(162.224764, 207.254807)"><g><path d="M 2.71875 -9.0625 L 2.71875 0 L 0.65625 0 L 0.65625 -9.0625 Z M 2.71875 -9.0625 "/></g></g></g><g fill="#ffffff" fill-opacity="1"><g transform="translate(169.636029, 207.254807)"><g><path d="M 0.65625 -9.0625 L 3.28125 -9.0625 C 4.539062 -9.0625 5.617188 -8.628906 6.515625 -7.765625 C 7.410156 -6.910156 7.859375 -5.832031 7.859375 -4.53125 C 7.859375 -3.226562 7.410156 -2.144531 6.515625 -1.28125 C 5.628906 -0.425781 4.550781 0 3.28125 0 L 0.65625 0 Z M 2.71875 -1.84375 L 3.046875 -1.84375 C 3.796875 -1.84375 4.410156 -2.097656 4.890625 -2.609375 C 5.367188 -3.117188 5.613281 -3.757812 5.625 -4.53125 C 5.625 -5.289062 5.382812 -5.925781 4.90625 -6.4375 C 4.425781 -6.957031 3.804688 -7.21875 3.046875 -7.21875 L 2.71875 -7.21875 Z M 2.71875 -1.84375 "/></g></g></g><g fill="#ffffff" fill-opacity="1"><g transform="translate(181.766705, 207.254807)"><g><path d="M 5.84375 -9.0625 L 5.84375 -7.25 L 2.71875 -7.25 L 2.71875 -5.453125 L 5.71875 -5.453125 L 5.71875 -3.640625 L 2.71875 -3.640625 L 2.71875 -1.8125 L 5.84375 -1.8125 L 5.84375 0 L 0.65625 0 L 0.65625 -9.0625 Z M 5.84375 -9.0625 "/></g></g></g><g fill="#ffffff" fill-opacity="1"><g transform="translate(192.163268, 207.254807)"><g><path d="M 2.71875 -5.625 L 2.71875 0 L 0.65625 0 L 0.65625 -9.0625 L 2.71875 -9.0625 L 6.328125 -3.4375 L 6.34375 -3.4375 L 6.34375 -9.0625 L 8.421875 -9.0625 L 8.421875 0 L 6.34375 0 L 2.75 -5.625 Z M 2.71875 -5.625 "/></g></g></g><g fill="#ffffff" fill-opacity="1"><g transform="translate(205.259773, 207.254807)"><g><path d="M 0.09375 -7.25 L 0.09375 -9.0625 L 6.453125 -9.0625 L 6.453125 -7.25 L 4.3125 -7.25 L 4.3125 0 L 2.234375 0 L 2.234375 -7.25 Z M 0.09375 -7.25 "/></g></g></g><g fill="#ffffff" fill-opacity="1"><g transform="translate(215.831938, 207.254807)"><g><path d="M 2.71875 -9.0625 L 2.71875 0 L 0.65625 0 L 0.65625 -9.0625 Z M 2.71875 -9.0625 "/></g></g></g><g fill="#ffffff" fill-opacity="1"><g transform="translate(223.243203, 207.254807)"><g><path d="M 5.90625 -9.0625 L 5.90625 -7.25 L 2.71875 -7.25 L 2.71875 -5.453125 L 5.65625 -5.453125 L 5.65625 -3.640625 L 2.71875 -3.640625 L 2.71875 0 L 0.65625 0 L 0.65625 -9.0625 Z M 5.90625 -9.0625 "/></g></g></g><g fill="#ffffff" fill-opacity="1"><g transform="translate(233.497082, 207.254807)"><g><path d="M 2.71875 -9.0625 L 2.71875 0 L 0.65625 0 L 0.65625 -9.0625 Z M 2.71875 -9.0625 "/></g></g></g><g fill="#ffffff" fill-opacity="1"><g transform="translate(240.908346, 207.254807)"><g><path d="M 5.84375 -9.0625 L 5.84375 -7.25 L 2.71875 -7.25 L 2.71875 -5.453125 L 5.71875 -5.453125 L 5.71875 -3.640625 L 2.71875 -3.640625 L 2.71875 -1.8125 L 5.84375 -1.8125 L 5.84375 0 L 0.65625 0 L 0.65625 -9.0625 Z M 5.84375 -9.0625 "/></g></g></g><g fill="#ffffff" fill-opacity="1"><g transform="translate(251.304909, 207.254807)"><g><path d="M 0.65625 -9.0625 L 3.90625 -9.0625 C 4.769531 -9.0625 5.476562 -8.828125 6.03125 -8.359375 C 6.582031 -7.898438 6.859375 -7.238281 6.859375 -6.375 C 6.859375 -5.707031 6.691406 -5.144531 6.359375 -4.6875 C 6.023438 -4.238281 5.570312 -3.925781 5 -3.75 L 8.125 0 L 5.5 0 L 2.71875 -3.578125 L 2.71875 0 L 0.65625 0 Z M 2.71875 -5.046875 L 2.96875 -5.046875 C 3.15625 -5.046875 3.3125 -5.046875 3.4375 -5.046875 C 3.570312 -5.054688 3.722656 -5.082031 3.890625 -5.125 C 4.066406 -5.175781 4.203125 -5.238281 4.296875 -5.3125 C 4.398438 -5.394531 4.488281 -5.515625 4.5625 -5.671875 C 4.632812 -5.828125 4.671875 -6.015625 4.671875 -6.234375 C 4.671875 -6.453125 4.632812 -6.632812 4.5625 -6.78125 C 4.488281 -6.9375 4.398438 -7.054688 4.296875 -7.140625 C 4.203125 -7.222656 4.066406 -7.285156 3.890625 -7.328125 C 3.722656 -7.367188 3.570312 -7.394531 3.4375 -7.40625 C 3.3125 -7.414062 3.15625 -7.421875 2.96875 -7.421875 L 2.71875 -7.421875 Z M 2.71875 -5.046875 "/></g></g></g></svg>